<svg xmlns="http://www.w3.org/2000/svg" viewBox="0 0 900 300"
  class="iso intlBackslash mixed">
  <!-- class="ergo ol60"> -->

  <style>
    :root {
      /* default keys */
      --fg-normal-shadow: #8bb8;
      --fg-normal-border: #666;
      --fg-normal:        #333;
      --bg-normal:        #fff;
      /* special keys */
      --fg-level3:        blue;
      --fg-level5:        green;
      --fg-deadkey:       red;
      --fg-special:       #555;
      --bg-special:       #e4e4e4;
      /* 'reach' theme */
      --bg-number:        hsl(295, 100%, 95%);
      --bg-letter:        hsl(222, 100%, 95%);
      --bg-home:          hsl(222, 100%, 90%);
    }

    rect, path {
      fill: var(--bg-normal);
      stroke: var(--fg-normal-border);
      stroke-width: .5px;
    }

    .specialKey,
    .specialKey rect,
    .specialKey path { fill: var(--bg-special); }

    #Escape { display: none; }

    #row_AE { transform: translate(4px, 4px); }
    #row_AD { transform: translate(4px, 64px); }
    #row_AC { transform: translate(4px, 124px); }
    #row_AB { transform: translate(4px, 184px); }
    #row_AA { transform: translate(4px, 244px); }

    /* Backslash + Enter */
    #Enter path.alt,
    #Enter     .iso,
    #Backslash .iso,
    .alt #Enter rect.ansi,
    .iso #Enter rect.ansi,
    .alt #Backslash .ansi,
    .iso #Backslash .ansi { display: none; }
    .alt #Enter     .alt,
    .iso #Enter     .iso,
    .iso #Backslash .iso { display: block; }
    .iso #Backslash { transform: translate(765px, 60px); }
    .alt #Backslash { transform: translate(780px, -60px); }

    /* Backspace + IntlYen */
    #IntlYen, #Backspace .alt,
    .intlYen  #Backspace .ansi { display: none; }
    .intlYen  #Backspace .alt,
    .intlYen  #IntlYen { display: block; }

    /* ShiftLeft + IntlBackslash */
    #IntlBackslash, #ShiftLeft .iso,
    .intlBackslash  #ShiftLeft .ansi { display: none; }
    .intlBackslash  #ShiftLeft .iso,
    .intlBackslash  #IntlBackslash { display: block; }

    /* ShiftRight + IntlRo */
    #IntlRo, #ShiftRight .abnt,
    .intlRo  #ShiftRight .ansi { display: none; }
    .intlRo  #ShiftRight .abnt,
    .intlRo  #IntlRo { display: block; }

    /* Angle Mod */
    .am #KeyZ          { transform: translateX( 74px); }
    .am #KeyX          { transform: translateX(134px); }
    .am #KeyC          { transform: translateX(194px); }
    .am #KeyV          { transform: translateX(254px); }
    .am #KeyB          { transform: translateX(314px); }
    .am #IntlBackslash { transform: translateX(374px); }

    .specialKey   .ergo,
    .specialKey   .ol60,
    .specialKey   .ol50,
    .specialKey   .ol40,
    #Space        .ol60,
    #Space        .ol50,
    #Space        .ol40,
    #Backquote    .ol60,
    #BracketRight .ol60,
    #Equal        .ol60,
    .ergo #CapsLock,
    .ergo #Space      rect,
    .ergo #Backslash  rect,
    .ergo .specialKey rect,
    .ergo .specialKey text { display: none; }
    .ol50 #Escape,
    .ol40 #Escape,
    .ol60 #Space        .ol60,
    .ol50 #Space        .ol50,
    .ol40 #Space        .ol40,
    .ol60 #Backquote    .ol60,
    .ol60 #BracketRight .ol60,
    .ol60 #Backslash    .ol60,
    .ol60 #Equal        .ol60,
    .ol60 .specialKey   .ol60,
    .ol50 .specialKey   .ol50,
    .ol40 .specialKey   .ol40,
    .ergo .specialKey   .ergo { display: block; }

    .ol50 .pinkyKey, .ol50 #ContextMenu,
    .ol40 .pinkyKey, .ol40 #ContextMenu,
    .ol40 #row_AE .numberKey { display: none; }

    .ergo #row_AE       { transform: translate(94px, 4px); }
    .ergo #row_AD       { transform: translate(64px, 64px); }
    .ergo #row_AC       { transform: translate(49px, 124px); }
    .ergo #row_AB       { transform: translate(19px, 184px); }

    .ergo #Tab          { transform: translate(15px, 0px); }
    .ergo #ShiftLeft    { transform: translate(60px, 0px); }
    .ergo #ControlLeft  { transform: translate(75px, 0px); }
    .ergo #MetaLeft     { transform: translate(150px, 0px); }
    .ergo #AltLeft      { transform: translate(240px, 0px); }
    .ergo #Space        { transform: translate(315px, 0px); }
    .ergo #AltRight     { transform: translate(540px, 0px); }
    .ergo #MetaRight    { transform: translate(630px, 0px); }
    .ergo #ControlRight { transform: translate(750px, 0px); }

    .ergo .left         { transform: translate(-15px, 0px); }
    .ergo .right        { transform: translate(15px, 0px); }

    .ol60 .left         { transform: translate(-75px, 0px); }
    .ol60 #ControlRight { transform: translate(810px, 0px); }
    .ol60 #Backquote    { transform: translate(-15px, 0px); }
    .ol60 #ShiftRight   { transform: translate(795px, 0px); }
    .ol60 #ContextMenu  { transform: translate(750px, 0px); }
    .ol60 #Backslash    { transform: translate(690px, 120px); }
    .ol60 #Backspace    { transform: translate(277.5px, 60px); }
    .ol60 #Enter        { transform: translate(322.5px, 60px); }

    .ol50 #Escape       { transform: translate(-15px, 0px); }
    .ol50 #Backspace    { transform: translate(660px, 0px); }
    .ol50 #Enter        { transform: translate(705px, -60px); }

    .ol40 #Escape       { transform: translate(-15px, 120px); }
    .ol40 #Backspace    { transform: translate(660px, 60px); }
    .ol40 #Enter        { transform: translate(705px, 0px); }

    [platform="gnu"].ergo .specialKey .win,
    [platform="gnu"].ergo .specialKey .mac,
    [platform="win"].ergo .specialKey .gnu,
    [platform="win"].ergo .specialKey .mac { display: none; }
    .ergo .specialKey .mac,
    [platform="gnu"].ergo .specialKey .gnu,
    [platform="win"].ergo .specialKey .win { display: block; }

    /* swap Alt/Meta for MacOSX */
    [platform="gnu"].ergo #MetaLeft,
    [platform="win"].ergo #MetaLeft,
                    .ergo #AltLeft   { transform: translate(150px, 0px); }
    [platform="gnu"].ergo #AltLeft,
    [platform="win"].ergo #AltLeft,
                    .ergo #MetaLeft  { transform: translate(240px, 0px); }
    [platform="gnu"].ergo #AltRight,
    [platform="win"].ergo #AltRight,
                    .ergo #MetaRight { transform: translate(570px, 0px); }
    [platform="gnu"].ergo #MetaRight,
    [platform="win"].ergo #MetaRight,
                    .ergo #AltRight  { transform: translate(660px, 0px); }

    #NonConvert, #Convert, #KanaMode,
    #Lang1, #Lang2,
    #Space .jis,
    #Space .ks,
    .ergo #Space .ansi,
    .ol60 #Space .ansi,
    .ks  #Space .ansi,
    .ks  #Space .jis,
    .jis #Space .ansi,
    .jis #Space .ks { display: none; }
    .ks  #Space .ks,
    .jis #NonConvert, .jis #Convert, .jis #KanaMode,
    .ks #Lang1, .ks #Lang2,
    .jis #Space .jis { display: block; }

    #Backquote .jis,
    #CapsLock  .jis,
    .jis #Backquote .ansi,
    .jis #CapsLock  .ansi { display: none; }
    .jis #Backquote .jis,
    .jis #CapsLock .jis { display: block; }

    .specialKey .win,
    .specialKey .gnu {
      display: none;
      font-size: 14px;
    }

    /* swap Alt/Meta for MacOSX */
    [platform="gnu"] #MetaLeft,
    [platform="win"] #MetaLeft,  #AltLeft   { transform: translate(75px, 0px); }
    [platform="gnu"] #AltLeft,
    [platform="win"] #AltLeft,   #MetaLeft  { transform: translate(150px, 0px); }
    [platform="gnu"] #AltRight,
    [platform="win"] #AltRight,  #MetaRight { transform: translate(600px, 0px); }
    [platform="gnu"] #MetaRight,
    [platform="win"] #MetaRight, #AltRight  { transform: translate(675px, 0px); }

    /* optional color theme: reach */
    [theme="reach"] .numberKey rect { fill: var(--bg-number); }
    [theme="reach"] .letterKey rect { fill: var(--bg-letter); }
    [theme="reach"] .homeKey   rect { fill: var(--bg-home); }

    /* accessibility (Workman) */
    .letterKey rect { fill: #f96d; }

    #KeyC rect,
    #KeyR rect,
    #KeyG rect,
    #KeyH rect,
    #KeyU rect,
    #Comma rect { fill: #fc3d; }

    #KeyW rect,
    #KeyE rect,
    #KeyV rect,
    #KeyM rect,
    #KeyI rect,
    #KeyO rect { fill: #88f4; }

    #KeyA rect,
    #Semicolon rect { fill: #88f8; }

    #KeyS rect,
    #KeyD rect,
    #KeyF rect,
    #KeyJ rect,
    #KeyK rect,
    #KeyL rect { fill: #88fd; }

  </style>

  <g id="row_AE">
    <g class="left">
      <g id="Escape" class="specialKey">
        <rect width="67" height="52" class="ergo" rx="5" ry="5"/>
      </g>
      <g id="Backquote" class="pinkyKey">
        <rect width="52" height="52" class="specialKey jis" rx="5" ry="5"/>
        <rect width="52" height="52" class="ansi alt iso ergo" rx="5" ry="5"/>
        <rect width="67" height="52" class="ol60" rx="5" ry="5"/>
      </g>
      <g id="Digit1" class="numberKey" transform="translate(60)">
        <rect width="52" height="52" rx="5" ry="5"/>
      </g>
      <g id="Digit2" class="numberKey" transform="translate(120)">
        <rect width="52" height="52" rx="5" ry="5"/>
      </g>
      <g id="Digit3" class="numberKey" transform="translate(180)">
        <rect width="52" height="52" rx="5" ry="5"/>
      </g>
      <g id="Digit4" class="numberKey" transform="translate(240)">
        <rect width="52" height="52" rx="5" ry="5"/>
      </g>
      <g id="Digit5" class="numberKey" transform="translate(300)">
        <rect width="52" height="52" rx="5" ry="5"/>
      </g>
    </g>
    <g class="right">
      <g id="Digit6" class="numberKey" transform="translate(360)">
        <rect width="52" height="52" rx="5" ry="5"/>
      </g>
      <g id="Digit7" class="numberKey" transform="translate(420)">
        <rect width="52" height="52" rx="5" ry="5"/>
      </g>
      <g id="Digit8" class="numberKey" transform="translate(480)">
        <rect width="52" height="52" rx="5" ry="5"/>
      </g>
      <g id="Digit9" class="numberKey" transform="translate(540)">
        <rect width="52" height="52" rx="5" ry="5"/>
      </g>
      <g id="Digit0" class="numberKey" transform="translate(600)">
        <rect width="52" height="52" rx="5" ry="5"/>
      </g>
      <g id="Minus" class="pinkyKey" transform="translate(660)">
        <rect width="52" height="52" rx="5" ry="5"/>
      </g>
      <g id="Equal" class="pinkyKey" transform="translate(720)">
        <rect width="52" height="52" rx="5" ry="5"/>
        <rect width="67" height="52" class="ol60" rx="5" ry="5"/>
      </g>
      <g id="IntlYen" class="pinkyKey" transform="translate(780)">
        <rect width="52" height="52" rx="5" ry="5"/>
      </g>
      <g id="Backspace" class="specialKey" transform="translate(780)">
        <rect width="112" height="52" class="ansi" rx="5" ry="5"/>
        <rect width="67" height="112" y="-60" class="ol60" rx="5" ry="5"/>
        <rect width="67" height="52" class="ol40 ol50" rx="5" ry="5"/>
        <rect width="52" height="52" x="60" class="alt" rx="5" ry="5"/>
      </g>
    </g>
  </g>

  <g id="row_AD">
    <g class="left">
      <g id="Tab" class="specialKey">
        <rect width="82" height="52" rx="5" ry="5"/>
        <rect width="67" height="52" class="ergo" rx="5" ry="5"/>
      </g>
      <g id="KeyQ" class="letterKey" transform="translate(90)">
        <rect width="52" height="52" rx="5" ry="5"/>
      </g>
      <g id="KeyW" class="letterKey" transform="translate(150)">
        <rect width="52" height="52" rx="5" ry="5"/>
      </g>
      <g id="KeyE" class="letterKey" transform="translate(210)">
        <rect width="52" height="52" rx="5" ry="5"/>
      </g>
      <g id="KeyR" class="letterKey" transform="translate(270)">
        <rect width="52" height="52" rx="5" ry="5"/>
      </g>
      <g id="KeyT" class="letterKey" transform="translate(330)">
        <rect width="52" height="52" rx="5" ry="5"/>
      </g>
    </g>
    <g class="right">
      <g id="KeyY" class="letterKey" transform="translate(390)">
        <rect width="52" height="52" rx="5" ry="5"/>
      </g>
      <g id="KeyU" class="letterKey" transform="translate(450)">
        <rect width="52" height="52" rx="5" ry="5"/>
      </g>
      <g id="KeyI" class="letterKey" transform="translate(510)">
        <rect width="52" height="52" rx="5" ry="5"/>
      </g>
      <g id="KeyO" class="letterKey" transform="translate(570)">
        <rect width="52" height="52" rx="5" ry="5"/>
      </g>
      <g id="KeyP" class="letterKey" transform="translate(630)">
        <rect width="52" height="52" rx="5" ry="5"/>
      </g>
      <g id="BracketLeft" class="pinkyKey" transform="translate(690)">
        <rect width="52" height="52" rx="5" ry="5"/>
      </g>
      <g id="BracketRight" class="pinkyKey" transform="translate(750)">
        <rect width="52" height="52" rx="5" ry="5"/>
        <rect width="67" height="52" class="ol60" rx="5" ry="5"/>
      </g>
      <g id="Backslash" class="pinkyKey" transform="translate(810)">
        <rect width="82" height="52" class="ansi" rx="5" ry="5"/>
        <rect width="52" height="52" class="iso ol60" rx="5" ry="5"/>
      </g>
    </g>
  </g>

  <g id="row_AC">
    <g class="left">
      <g id="CapsLock" class="specialKey">
        <rect width="97" height="52" rx="5" ry="5"/>
      </g>
      <g id="KeyA" class="letterKey homeKey" transform="translate(105)">
        <rect width="52" height="52" rx="5" ry="5"/>
      </g>
      <g id="KeyS" class="letterKey homeKey" transform="translate(165)">
        <rect width="52" height="52" rx="5" ry="5"/>
      </g>
      <g id="KeyD" class="letterKey homeKey" transform="translate(225)">
        <rect width="52" height="52" rx="5" ry="5"/>
      </g>
      <g id="KeyF" class="letterKey homeKey" transform="translate(285)">
        <rect width="52" height="52" rx="5" ry="5"/>
      </g>
      <g id="KeyG" class="letterKey" transform="translate(345)">
        <rect width="52" height="52" rx="5" ry="5"/>
      </g>
    </g>
    <g class="right">
      <g id="KeyH" class="letterKey" transform="translate(405)">
        <rect width="52" height="52" rx="5" ry="5"/>
      </g>
      <g id="KeyJ" class="letterKey homeKey" transform="translate(465)">
        <rect width="52" height="52" rx="5" ry="5"/>
      </g>
      <g id="KeyK" class="letterKey homeKey" transform="translate(525)">
        <rect width="52" height="52" rx="5" ry="5"/>
      </g>
      <g id="KeyL" class="letterKey homeKey" transform="translate(585)">
        <rect width="52" height="52" rx="5" ry="5"/>
      </g>
      <g id="Semicolon" class="letterKey homeKey" transform="translate(645)">
        <rect width="52" height="52" rx="5" ry="5"/>
      </g>
      <g id="Quote" class="pinkyKey" transform="translate(705)">
        <rect width="52" height="52" rx="5" ry="5"/>
      </g>
      <g id="Enter" class="specialKey" transform="translate(765)">
        <path d="M50-60h72a5 5 0 0 1 5 5V47a5 5 0 0 1-5 5H5a5 5 0 0 1-5-5V5a5 5 0 0 1 5-5h35a5 5 1 0 0 5-5v-50a5 5 0 0 1 5-5z" class="alt"/>
        <path d="M50-60h72a5 5 0 0 1 5 5V47a5 5 0 0 1-5 5H65a5 5 0 0 1-5-5V-3a5 5 1 0 0-5-5h-5a5 5 0 0 1-5-5v-42a5 5 0 0 1 5-5z" class="iso"/>
        <rect width="127" height="52" class="ansi" rx="5" ry="5"/>
        <rect width="67" height="112" y="-60" class="ol60" rx="5" ry="5"/>
        <rect width="67" height="52" class="ol40 ol50" rx="5" ry="5"/>
      </g>
    </g>
  </g>

  <g id="row_AB">
    <g class="left">
      <g id="ShiftLeft" class="specialKey">
        <rect width="127" height="52" class="ansi alt" rx="5" ry="5"/>
        <rect width="67" height="52" class="iso" rx="5" ry="5"/>
        <rect width="67" height="112" y="-60" class="ol50 ol60" rx="5" ry="5"/>
        <rect width="67" height="52" class="ol40" rx="5" ry="5"/>
      </g>
      <g id="IntlBackslash" class="pinkyKey" transform="translate(75)">
        <rect width="52" height="52" rx="5" ry="5"/>
      </g>
      <g id="KeyZ" class="letterKey" transform="translate(135)">
        <rect width="52" height="52" rx="5" ry="5"/>
      </g>
      <g id="KeyX" class="letterKey" transform="translate(195)">
        <rect width="52" height="52" rx="5" ry="5"/>
      </g>
      <g id="KeyC" class="letterKey" transform="translate(255)">
        <rect width="52" height="52" rx="5" ry="5"/>
      </g>
      <g id="KeyV" class="letterKey" transform="translate(315)">
        <rect width="52" height="52" rx="5" ry="5"/>
      </g>
      <g id="KeyB" class="letterKey" transform="translate(375)">
        <rect width="52" height="52" rx="5" ry="5"/>
      </g>
    </g>
    <g class="right">
      <g id="KeyN" class="letterKey" transform="translate(435)">
        <rect width="52" height="52" rx="5" ry="5"/>
      </g>
      <g id="KeyM" class="letterKey" transform="translate(495)">
        <rect width="52" height="52" rx="5" ry="5"/>
      </g>
      <g id="Comma" class="letterKey" transform="translate(555)">
        <rect width="52" height="52" rx="5" ry="5"/>
      </g>
      <g id="Period" class="letterKey" transform="translate(615)">
        <rect width="52" height="52" rx="5" ry="5"/>
      </g>
      <g id="Slash" class="letterKey" transform="translate(675)">
        <rect width="52" height="52" rx="5" ry="5"/>
      </g>
      <g id="IntlRo" class="pinkyKey" transform="translate(735)">
        <rect width="52" height="52" rx="5" ry="5"/>
      </g>
      <g id="ShiftRight" class="specialKey" transform="translate(735)">
        <rect width="157" height="52" class="ansi" rx="5" ry="5"/>
        <rect width="97" height="52" x="60" class="abnt" rx="5" ry="5"/>
        <rect width="67" height="112" y="-60" class="ol50 ol60" rx="5" ry="5"/>
        <rect width="67" height="52" class="ol40" rx="5" ry="5"/>
      </g>
    </g>
  </g>

  <g id="row_AA">
    <g class="left">
      <g id="ControlLeft" class="specialKey">
        <rect width="67" height="52" rx="5" ry="5"/>
        <rect width="67" height="52" class="ergo" rx="5" ry="5"/>
      </g>
      <g id="MetaLeft" class="specialKey" transform="translate(75)">
        <rect width="67" height="52" rx="5" ry="5"/>
        <rect width="82" height="52" class="ergo" rx="5" ry="5"/>
      </g>
      <g id="AltLeft" class="specialKey" transform="translate(150)">
        <rect width="67" height="52" rx="5" ry="5"/>
        <rect width="82" height="52" class="ergo" rx="5" ry="5"/>
      </g>
      <g id="Lang2" class="specialKey" transform="translate(225)">
        <rect width="52" height="52" rx="5" ry="5"/>
      </g>
      <g id="NonConvert" class="specialKey" transform="translate(225)">
        <rect width="52" height="52" rx="5" ry="5"/>
      </g>
    </g>
    <g id="Space" class="homeKey" transform="translate(225)">
      <rect width="367" height="52" class="ansi" rx="5" ry="5"/>
      <rect width="322" height="52" x="-60" class="ol60" rx="5" ry="5"/>
      <rect width="262" height="52" class="ol50 ol40" rx="5" ry="5"/>
      <rect width="247" height="52" x="60" class="ks" rx="5" ry="5"/>
      <rect width="187" height="52" x="60" class="jis" rx="5" ry="5"/>
    </g>
    <g class="right">
      <g id="Convert" class="specialKey" transform="translate(480)">
        <rect width="52" height="52" rx="5" ry="5"/>
      </g>
      <g id="KanaMode" class="specialKey" transform="translate(540)">
        <rect width="52" height="52" rx="5" ry="5"/>
      </g>
      <g id="Lang1" class="specialKey" transform="translate(540)">
        <rect width="52" height="52" rx="5" ry="5"/>
      </g>
      <g id="AltRight" class="specialKey" transform="translate(600)">
        <rect width="67" height="52" rx="5" ry="5"/>
        <rect width="82" height="52" class="ergo" rx="5" ry="5"/>
      </g>
      <g id="MetaRight" class="specialKey" transform="translate(690)">
        <rect width="67" height="52" rx="5" ry="5"/>
        <rect width="82" height="52" class="ergo" rx="5" ry="5"/>
      </g>
      <g id="ContextMenu" class="specialKey" transform="translate(750)">
        <rect width="67" height="52" rx="5" ry="5"/>
        <rect width="52" height="52" class="ergo" rx="5" ry="5"/>
      </g>
      <g id="ControlRight" class="specialKey" transform="translate(825)">
        <rect width="67" height="52" rx="5" ry="5"/>
        <rect width="67" height="52" class="ergo" rx="5" ry="5"/>
      </g>
    </g>
  </g>
</svg>
